<svg viewBox="0 0 67 67" fill="currentColor" xmlns="http://www.w3.org/2000/svg">
<path d="M39.0833 25.125H27.9167V27.9167H25.125V39.0833H27.9167V41.875H39.0833V39.0833H41.875V27.9167H39.0833V25.125ZM36.2917 36.2917H30.7083V30.7083H36.2917V36.2917Z" />
<path d="M58.6263 25.125V19.5417H55.8346V16.75H53.043V13.9583H47.4596V8.375H19.543V13.9583H13.9596V16.75H11.168V19.5417H8.3763V25.125H2.79297V41.875H8.3763V47.4583H11.168V50.25H13.9596V53.0417H19.543V58.625H47.4596V53.0417H53.043V50.25H55.8346V47.4583H58.6263V41.875H64.2096V25.125H58.6263ZM58.6263 36.2917H53.043V41.875H50.2513V44.6667H47.4596V47.4583H41.8763V53.0417H25.1263V47.4583H19.543V44.6667H16.7513V41.875H13.9596V36.2917H8.3763V30.7083H13.9596V27.9167V25.125H16.7513V22.3333H19.543V19.5417H25.1263V13.9583H41.8763V19.5417H47.4596V22.3333H50.2513V25.125H53.043V30.7083H58.6263V36.2917Z" />
</svg>
