<svg viewBox="0 0 25 25" fill="currentColor" xmlns="http://www.w3.org/2000/svg">
    <path d="M2.08333 2.08325H0V22.9165H2.08333V2.08325Z"/>
    <path d="M2.08307 0L2.08301 2.08332L6.2497 2.08333V0H2.08307Z"/>
    <path d="M6.25003 2.08325L6.25 4.1666L10.4167 4.16657V2.08326L6.25003 2.08325Z"/>
    <path d="M10.417 4.16675V6.25008L14.5837 6.25009L14.5836 4.16675H10.417Z"/>
    <path d="M14.583 6.25V8.33333L18.7496 8.33335V6.25H14.583Z"/>
    <path d="M18.75 8.33325V10.4166L22.9167 10.4165V8.33325H18.75Z"/>
    <path d="M22.917 14.5832H25.0003V10.4165H22.917V14.5832Z"/>
    <path d="M18.75 14.5833V16.6666H22.9167V14.5833H18.75Z"/>
    <path d="M14.583 16.6665V18.7499H18.7496V16.6665H14.583Z"/>
    <path d="M10.417 18.75V20.8333H14.5836L14.5837 18.75H10.417Z"/>
    <path d="M6.25 20.8333L6.25003 22.9166H10.4167V20.8333H6.25Z"/>
    <path d="M2.08301 22.9165L2.08307 24.9999H6.2497V22.9165H2.08301Z"/>
    <path d="M6.24967 2.08301H2.08301V22.9163H6.24967V20.833H10.4164V18.7497H14.583V16.6663H18.7497V14.583H22.9164V10.4163H18.7497V8.333H14.583V6.24967H10.4164V4.16634H6.24967V2.08301Z"/>
</svg>
